<?xml version="1.0" encoding="iso-8859-1"?>
<!DOCTYPE svg PUBLIC "-//W3C//DTD SVG 1.1//EN" "http://www.w3.org/Graphics/SVG/1.1/DTD/svg11.dtd">
<svg xmlns="http://www.w3.org/2000/svg" xmlns:xlink="http://www.w3.org/1999/xlink" version="1.1" x="0px" y="0px" width="29px" height="29px" viewBox="0 0 477.909 477.909" xml:space="preserve">

	<g id="container">
	
		<g id="circle">
			<path d="M238.954,477.909C107.195,477.909,0,370.716,0,238.955C0,107.196,107.195,0,238.954,0     c131.761,0,238.955,107.196,238.955,238.955C477.909,370.716,370.715,477.909,238.954,477.909z M238.954,28.675     c-115.951,0-210.28,94.329-210.28,210.28c0,115.949,94.329,210.28,210.28,210.28c115.949,0,210.28-94.331,210.28-210.28     C449.234,123.004,354.903,28.675,238.954,28.675z" fill="#fff"/>
		</g>			
		
		<g id="pointer">
			<path d="M323.12,130.25c-46.475-46.47-121.568-46.099-168.042,0.378c-46.477,46.477-46.804,121.731-0.336,168.211l83.984,83.489      l84.134-84.147C369.339,251.696,369.591,176.727,323.12,130.25z M238.949,315.682c-56.212,0-101.789-45.569-101.789-101.789      c0-56.229,45.576-101.808,101.789-101.808c56.225,0,101.799,45.579,101.799,101.808      C340.729,270.112,295.174,315.682,238.949,315.682z" fill="#fff"/>								
		</g>
		
		<g id="star">
			<path d="M233.291,141.48c4.35-3.722,11.982-2.476,14.446,2.84c5.004,12.391,9.913,24.817,14.884,37.222       c0.089,0.422,0.48,0.564,0.868,0.564c12.438,0.852,24.866,1.865,37.313,2.759c3.556,0.072,7.099,2.035,8.708,5.276       c2.007,3.636,1.33,8.683-1.932,11.378c-10.039,8.249-19.976,16.603-29.973,24.875c-0.279,0.238-0.56,0.488-0.746,0.803       c2.828,12.302,5.992,24.544,8.951,36.828c2.24,6.161-3.01,13.423-9.604,12.938c-2.287-0.028-4.275-1.279-6.077-2.516       c-9.81-6.193-19.62-12.396-29.439-18.584c-0.831-0.509-1.624-1.158-2.562-1.461c-11.131,6.697-22.089,13.712-33.183,20.46       c-3.052,1.82-7.11,1.792-10.106-0.13c-3.16-1.877-5.099-5.75-4.359-9.419c3.192-13.124,6.791-26.191,9.845-39.343       c-9.019-7.761-18.169-15.366-27.225-23.074c-2.051-1.664-4.277-3.402-5.167-5.993c-2.18-5.207,1.265-11.988,6.968-12.799       c13.567-1.146,27.23-1.629,40.769-2.877c4.679-11.187,9.185-22.46,13.817-33.678       C230.327,145.31,231.326,142.977,233.291,141.48z" fill="#fff"/>
		</g>
		
	</g>

</svg>
