<svg xmlns="http://www.w3.org/2000/svg" width="41.183" height="33.184"><path d="M10.715 20.487a6.5 6.5 0 1 1-4.398 7.515l-.444.072-.38-1.92c-.05-.21-.1-.57-.16-1.05-.32-2.8-.17-5.88.83-8.85.26-.78.58-1.54.96-2.26 1.03-1.97 2.65-3.88 4.71-5.71 1.21-1.09 2.51-2.08 3.81-2.98.78-.53 1.4-.92 1.76-1.14l1.69-.98 1.97 3.37-1.69.99c-.06.03-.2.12-.39.24-.34.21-.72.46-1.13.74-1.17.81-2.34 1.71-3.42 2.67-1.73 1.55-3.07 3.12-3.85 4.61-.28.54-.52 1.1-.72 1.7-.329.978-.096 2.462.852 2.983zm19.359-.103a6.5 6.5 0 1 1-4.88 6.685l-.18-.915c-.05-.21-.1-.57-.16-1.05-.32-2.8-.16-5.88.83-8.85.26-.78.58-1.54.96-2.26 1.03-1.97 2.66-3.88 4.71-5.71 1.22-1.09 2.51-2.08 3.81-2.98.78-.53 1.4-.92 1.77-1.14l1.68-.98 1.97 3.37-1.68.99c-.07.03-.21.12-.4.24-.34.21-.72.46-1.13.74-1.17.81-2.34 1.71-3.42 2.67-1.73 1.55-3.07 3.12-3.85 4.61-.28.54-.52 1.1-.72 1.7-.31.92-.123 2.288.69 2.88z" fill="#f1f3c9"/><path d="M7.715 18.487a6.5 6.5 0 1 1-4.398 7.515l-.444.072-.38-1.92c-.05-.21-.1-.57-.16-1.05-.32-2.8-.17-5.88.83-8.85.26-.78.58-1.54.96-2.26 1.03-1.97 2.65-3.88 4.71-5.71 1.21-1.09 2.51-2.08 3.81-2.98.78-.53 1.4-.92 1.76-1.14l1.69-.98 1.97 3.37-1.69.99c-.06.03-.2.12-.39.24-.34.21-.72.46-1.13.74-1.17.81-2.34 1.71-3.42 2.67-1.73 1.55-3.07 3.12-3.85 4.61-.28.54-.52 1.1-.72 1.7-.329.978-.096 2.462.852 2.983zm19.359-.103a6.5 6.5 0 1 1-4.88 6.685l-.18-.915c-.05-.21-.1-.57-.16-1.05-.32-2.8-.16-5.88.83-8.85.26-.78.58-1.54.96-2.26 1.03-1.97 2.66-3.88 4.71-5.71 1.22-1.09 2.51-2.08 3.81-2.98.78-.53 1.4-.92 1.77-1.14l1.68-.98 1.97 3.37-1.68.99c-.07.03-.21.12-.4.24-.34.21-.72.46-1.13.74-1.17.81-2.34 1.71-3.42 2.67-1.73 1.55-3.07 3.12-3.85 4.61-.28.54-.52 1.1-.72 1.7-.31.92-.123 2.288.69 2.88z" fill="none" stroke-dasharray="0" stroke="#4e5877" stroke-miterlimit="50" stroke-width="2"/></svg>