<svg height="161" width="250" xmlns="http://www.w3.org/2000/svg" viewBox="0 0 250 161"><path fill="#f1f7f8" fill-rule="evenodd" d="M53.86 104.16c-.66-.4-1.31-.83-1.94-1.28H37.55c-3.17 0-5.74-2.58-5.74-5.75a5.74 5.74 0 0 1 5.74-5.74h5.39a26.363 26.363 0 0 1-1.93-9.92H19.43C8.7 81.47 0 72.78 0 62.05c0-10.73 8.69-19.43 19.43-19.43h30.91c-.08-.64-.12-1.29-.12-1.95 0-8.84 7.16-16 16.01-16h65.92c6.68 0 12.41 4.09 14.8 9.92h60.8c8.84 0 16.01 7.16 16.01 16 0 1.54-.22 3.02-.63 4.43h.43c14.6 0 26.44 11.84 26.44 26.45 0 11.7-7.59 21.62-18.11 25.11 4.53 2.83 7.54 7.85 7.54 13.59 0 8.84-7.15 16-16 16h-81.71a15.98 15.98 0 0 1-13.89-8.04 13.262 13.262 0 0 1-7.96 2.65H51.9c-7.35 0-13.3-5.96-13.3-13.31 0-7.35 5.95-13.31 13.3-13.31h1.96zm75.27 3.76h2.27c-.42.36-.83.74-1.22 1.15-.33-.4-.68-.79-1.05-1.15zm0 0"/><path fill="#d2dee2" fill-rule="evenodd" d="M34.5 14.21c-.84-.45-2.19-.46-3.04 0l-3.04 1.67c-.84.46-1.15.14-.69-.69l1.67-3.04c.46-.84.45-2.2 0-3.03l-1.67-3.04c-.46-.84-.16-1.15.69-.69l3.04 1.66c.84.46 2.2.47 3.04 0l3.05-1.66c.84-.46 1.14-.15.69.69l-1.67 3.04c-.46.84-.46 2.2 0 3.03l1.67 3.04c.46.84.15 1.15-.69.69l-3.05-1.67zm202.38 142.06c-.84-.46-2.19-.47-3.04 0l-3.04 1.66c-.84.46-1.15.15-.69-.69l1.67-3.04c.46-.83.45-2.2 0-3.03l-1.67-3.04c-.46-.84-.16-1.15.69-.69l3.04 1.67c.84.46 2.2.46 3.04 0l3.05-1.67c.84-.46 1.14-.14.69.69l-1.67 3.04c-.46.84-.46 2.2 0 3.03l1.67 3.04c.46.84.15 1.15-.69.69l-3.05-1.66zm0 0"/><path fill="#e1ecef" fill-rule="evenodd" d="M64.24 8.31c-.85-.46-2.22-.46-3.06 0l-1.25.68c-.85.46-1.16.16-.7-.69l.69-1.25c.46-.84.46-2.21 0-3.06l-.69-1.24c-.46-.85-.15-1.16.7-.69l1.25.68c.84.46 2.21.46 3.06 0l1.25-.68c.84-.47 1.16-.16.69.69l-.68 1.24c-.47.85-.47 2.22 0 3.06l.68 1.25c.46.84.16 1.16-.69.69l-1.25-.68zm174.22 121.76c-.85-.46-2.22-.47-3.07 0l-1.25.68c-.84.46-1.15.16-.69-.69l.68-1.25c.47-.84.47-2.21 0-3.06l-.68-1.24c-.46-.85-.15-1.16.69-.69l1.25.68c.85.46 2.22.46 3.07 0l1.24-.68c.85-.47 1.16-.16.7.69l-.69 1.24c-.46.85-.46 2.21 0 3.06l.69 1.25c.46.84.15 1.15-.7.69l-1.24-.68zm0 0"/><path fill="#cadde3" fill-rule="evenodd" d="M245.06 141.79c.97 0 1.75-.78 1.75-1.74s-.78-1.74-1.75-1.74a1.741 1.741 0 0 0 0 3.48zm0 0"/><path fill="#e1ecef" fill-rule="evenodd" d="M39.92 30.92c.65 0 1.18-.53 1.18-1.18 0-.65-.53-1.17-1.18-1.17-.64 0-1.17.52-1.17 1.17 0 .65.53 1.18 1.17 1.18zm0 0"/><path stroke-width=".869" stroke="#d2dee2" fill="none" d="M39.92 33.65c2.17 0 3.92-1.75 3.92-3.91s-1.75-3.91-3.92-3.91c-2.16 0-3.92 1.75-3.92 3.91s1.76 3.91 3.92 3.91zm0 0"/><path fill="none" d="M105 82.01C105 65.99 118 53 134.01 53h.05c16.02 0 29.01 12.99 29.01 29.01 0 16.02-12.99 29.01-29.01 29.01h-.05c-16.02 0-29.01-12.98-29.01-29.01zm0 0"/><path fill="#4e5877" fill-rule="evenodd" d="M155.4 104.8c-1.63-4.62-8.66-7.51-11.74-8.58-.69-.24-.93-1.07-.49-1.65 2.44-3.22 3.83-6.9 4.32-8.44.16-.52.61-.89 1.14-.98 2.46-.37 3.93-2.18 4.17-5.18.14-1.78-.29-3.27-1.25-4.3a4.68 4.68 0 0 0-.87-.73.45.45 0 0 1-.23-.5c.09-.43.17-1.19-.29-1.73-.34-.4-.82-.65-1.35-.65h-.59c-.5 0-.9-.4-.89-.9.1-5.57.44-11.73-5.9-11.31a2.22 2.22 0 0 1-1.61-.57c-1.43-1.24-3.77-2.39-5.96-2.39-12.49 0-13.07 6.6-13.09 14.29 0 .49-.39.88-.88.88h-.51c-.55 0-1.01.15-1.35.48-.44.42-.63 1.03-.49 1.67l.06.23c.05.21-.04.42-.22.53-.31.2-.59.42-.83.68-.95 1.04-1.38 2.52-1.24 4.32.24 2.9 1.74 4.72 4.16 5.15.51.09.92.43 1.08.92.86 2.76 2.89 6.28 4.62 8.51.46.58.21 1.43-.49 1.67-3.09 1.03-9.97 3.81-11.97 8.58-1.3 3.06-.81 5.46-.8 5.56l.93-.12h42.43l.93.12c.01-.09.32-2.42-.8-5.56zm-7.86-29.93c.03-.06.06-.12.09-.17.12-.18.32-.31.56-.31.38 0 .69.31.69.69a.7.7 0 0 1-.69.7c-.38 0-.69-.31-.69-.7 0-.07.02-.14.04-.21zm-1.19.94l-1.09 4.36c-.1.41-.47.7-.89.7h-4.7a.94.94 0 0 1-.91-.75l-.86-4.55a.93.93 0 0 1 .19-.76.95.95 0 0 1 .71-.33h6.51c.7 0 1.21.66 1.04 1.33zm-23.43-4.78l1.01-4.74c.26-1.2 1.42-1.99 2.63-1.79l5.67.95c1.19.2 2.4.2 3.59.01l5.83-.96c1.21-.2 2.36.58 2.62 1.78l1.04 4.75c.18.83-.45 1.61-1.31 1.61h-19.77c-.85 0-1.49-.78-1.31-1.61zm-.19 3.45h3.98l2.6.01c.33.03.54.21.63.32.11.13.27.4.2.76l-.87 4.55c-.08.43-.46.75-.91.75h-4.69a.94.94 0 0 1-.9-.7l-1.09-4.36c-.02-.07-.02-.14-.02-.21 0-.01-.01-.01-.01-.02-.01-.59.46-1.1 1.08-1.1zm-3.05-.09c.24 0 .44.14.57.33.03.05.05.1.08.15.02.07.04.14.04.21 0 .38-.31.69-.69.69a.7.7 0 0 1-.7-.69c0-.38.31-.69.7-.69zm3.47 9.81c-.39-.19-.79-.22-1.15-.13-.15.03-.3-.06-.34-.21-.06-.25-.11-.51-.15-.77a.915.915 0 0 0-1.2-.71c-.45.14-.69.62-.6 1.08v.01c.04.21-.16.39-.36.33-1.33-.41-2.05-1.53-2.2-3.4-.08-.89 0-2.11.75-2.93.14-.15.31-.28.5-.4.45.44 1.08.57 1.51.65.12.03.27.06.38.09l.71 2.81a2.762 2.762 0 0 0 2.68 2.08h4.69c1.32 0 2.47-.95 2.71-2.25l.87-4.54c.07-.36.05-.72-.02-1.07.71.42 1.19 1.19 1.18 2.07l-.01 3.34c0 .33-.28.61-.62.61h-.16c-.46 0-.89.31-.96.77-.09.57.35 1.07.91 1.07h3.44c.46 0 .88-.32.96-.77a.923.923 0 0 0-.91-1.07h-.21c-.34 0-.62-.28-.62-.62l.02-3.33c0-.67-.16-1.31-.44-1.87-.13-.27.07-.58.37-.58h.66c.33 0 .57.28.53.61-.04.27-.03.55.02.83l.87 4.55a2.773 2.773 0 0 0 2.71 2.24h4.7c1.26 0 2.37-.86 2.68-2.08l.71-2.81c.1-.03.26-.06.38-.08.43-.09 1.07-.22 1.53-.67.2.12.38.26.54.43.75.82.83 2.03.76 2.91-.2 2.44-1.22 3.24-2.33 3.48a.29.29 0 0 1-.35-.22.902.902 0 0 0-.71-.78.92.92 0 0 0-1.09.7c-.05.24-.11.48-.18.71a.27.27 0 0 1-.32.2c-.29-.05-.6-.04-.91.08l-1.55.59c-1.41.54-2.96.39-4.29-.32-.99-.52-2.06-.89-3.19-1.09-.7-.13-1.33.44-1.33 1.17 0 .58.41 1.07.96 1.16 2.25.37 3.88 1.5 3.88 2.83 0 1.64-2.48 3.4-5.53 3.4-3.06 0-5.53-1.76-5.53-3.4 0-1.34 1.64-2.46 3.9-2.84.56-.09.99-.57.98-1.16 0-.72-.63-1.29-1.33-1.16-1.08.19-2.11.54-3.05 1.02-1.45.75-3.17.74-4.64.02l-1.21-.58zm10.93 24.85c-5.39 0-10.07-3.02-12.45-7.47-.42-.8-.04-1.8.79-2.17.9-.4 1.74-.71 2.43-.94.48-.17.98.19.98.71v.63c0 .51.41.92.92.92s.92-.41.92-.92v-1.18c0-.49.53-.8.95-.55 1.73 1 3.6 1.54 5.54 1.54 1.88 0 3.68-.53 5.32-1.48.43-.25.96.06.96.55v1.12c0 .51.41.92.92.92s.92-.41.92-.92v-.63c0-.52.5-.88.98-.71.71.23 1.56.56 2.48.96.83.37 1.22 1.38.78 2.18a14.086 14.086 0 0 1-12.44 7.44zm0 0"/><path fill="#4e5877" fill-rule="evenodd" d="M126.89 75.99c2.45.01 2.44 3.68-.02 3.67-2.45-.01-2.43-3.68.02-3.67m14.29.05c2.45.01 2.43 3.69-.02 3.68-2.45-.02-2.44-3.69.02-3.68m-11.03 12.81c.85 1.1 2.27 1.83 3.89 1.83s3.04-.72 3.88-1.83c.34-.44.02-1.1-.52-1.1h-6.73c-.54 0-.86.66-.52 1.1zm0 0"/><path stroke-width="1.452" stroke="#4e5877" fill="none" d="M105 82.01C105 65.99 118 53 134.01 53h.05c16.02 0 29.01 12.99 29.01 29.01 0 16.02-12.99 29.01-29.01 29.01h-.05c-16.02 0-29.01-12.98-29.01-29.01zm0 0"/><path fill="#f1f3c9" fill-rule="evenodd" d="M63.31 79.67c0-1.3 1.06-2.36 2.36-2.36h44.95c1.3 0 2.36 1.05 2.36 2.36v23.6c0 1.31-1.06 2.37-2.37 2.37H83.73s.47 4.72-2.29 4.72-8.7-4.72-8.7-4.72h-7.07c-1.3 0-2.36-1.06-2.36-2.37v-23.6zm0 0"/><path stroke-width="1.656" stroke="#4e5877" fill="none" d="M60 76.49c0-1.38 1.11-2.49 2.48-2.49h47.19c1.37 0 2.48 1.11 2.48 2.49v24.77c0 1.38-1.11 2.49-2.49 2.49H81.44s.5 4.96-2.4 4.96-9.14-4.96-9.14-4.96h-7.41c-1.38 0-2.49-1.11-2.49-2.49V76.49zm0 0"/><path fill="#d6e0f8" fill-rule="evenodd" d="M157.31 49.67c0-1.3 1.06-2.36 2.36-2.36h44.95c1.3 0 2.36 1.05 2.36 2.36v23.6c0 1.31-1.06 2.37-2.37 2.37h-26.88s.47 4.72-2.29 4.72-8.7-4.72-8.7-4.72h-7.07c-1.3 0-2.36-1.06-2.36-2.37v-23.6zm0 0"/><path stroke-width="1.656" stroke="#4e5877" fill="none" d="M154 46.49c0-1.38 1.11-2.49 2.48-2.49h47.19c1.37 0 2.48 1.11 2.48 2.49v24.77c0 1.38-1.11 2.49-2.49 2.49h-28.22s.5 4.96-2.4 4.96-9.14-4.96-9.14-4.96h-7.41c-1.38 0-2.49-1.11-2.49-2.49V46.49zm0 0"/><path fill="#e56f7e" fill-rule="evenodd" d="M180.5 68s8.5-3.6 8.5-9.52c0-3.35-1.61-5.48-4.36-5.48-2.76 0-3.22 1.62-4.14 3.16-.92-1.54-1.45-3.16-4.28-3.16-2.84 0-4.22 2.39-4.22 5.48 0 5.92 8.5 9.52 8.5 9.52zm0 0"/><path stroke-width=".907" stroke="#4e5877" fill="none" d="M180.5 67s8.5-3.6 8.5-9.52c0-3.35-1.61-5.48-4.36-5.48-2.76 0-3.22 1.62-4.14 3.16-.92-1.54-1.45-3.16-4.28-3.16-2.84 0-4.22 2.39-4.22 5.48 0 5.92 8.5 9.52 8.5 9.52zm0 0"/><path fill="#ffd7d7" fill-rule="evenodd" d="M74.31 34.67c0-1.3 1.06-2.36 2.36-2.36h44.95c1.3 0 2.36 1.05 2.36 2.36v23.6c0 1.31-1.06 2.37-2.37 2.37H94.73s.47 4.72-2.29 4.72-8.7-4.72-8.7-4.72h-7.07c-1.3 0-2.36-1.06-2.36-2.37v-23.6zm0 0"/><path stroke-width="1.656" stroke="#4e5877" fill="none" d="M71 31.49c0-1.38 1.11-2.49 2.48-2.49h47.19c1.37 0 2.48 1.11 2.48 2.49v24.77c0 1.38-1.11 2.49-2.49 2.49H92.44s.5 4.96-2.4 4.96-9.14-4.96-9.14-4.96h-7.41c-1.38 0-2.49-1.11-2.49-2.49V31.49zm0 0"/><path fill="#4e5877" fill-rule="evenodd" d="M77 40h40v2H77v-2zm0 7h22v2H77v-2zm0 0"/><path fill="#f8b91c" fill-rule="evenodd" d="M70.49 90.98l-2.05 1 .39-2.1-1.66-1.49 2.29-.3 1.03-1.91 1.02 1.91 2.29.3-1.66 1.49.4 2.1-2.05-1zm7.67 0l-2.05 1 .39-2.1-1.66-1.49 2.29-.3 1.03-1.91 1.02 1.91 2.29.3-1.66 1.49.4 2.1-2.05-1zm23.44 0l-2.05 1 .39-2.1-1.65-1.49 2.29-.3 1.02-1.91 1.03 1.91 2.29.3-1.66 1.49.39 2.1-2.05-1zm-15.77 0l-2.05 1 .39-2.1-1.66-1.49 2.29-.3 1.03-1.91 1.02 1.91 2.29.3-1.66 1.49.39 2.1-2.04-1zm7.67 0l-2.05 1 .39-2.1-1.66-1.49 2.29-.3 1.03-1.91 1.02 1.91 2.29.3-1.66 1.49.39 2.1-2.04-1zm0 0"/></svg>